<?xml version="1.0" encoding="UTF-8"?>
<svg width="90px" height="41px" viewBox="0 0 90 41" version="1.1" xmlns="http://www.w3.org/2000/svg" xmlns:xlink="http://www.w3.org/1999/xlink">
    <!-- Generator: Sketch 55 (78076) - https://sketchapp.com -->
    <title>xstarters_partner_friends_autostadt_black</title>
    <desc>Created with Sketch.</desc>
    <g id="xstarters_partner_friends_autostadt_black" stroke="none" stroke-width="1" fill="none" fill-rule="evenodd">
        <g id="Autostadt_A" transform="translate(30.000000, 0.000000)" fill="#000000" fill-rule="nonzero">
            <path d="M7.25704225,37.6627907 L9.48591549,37.6627907 L9.48591549,38.2348837 L8.72535211,38.2348837 L8.72535211,40.9152455 L8.02816901,40.9152455 L8.02816901,38.2348837 L7.25704225,38.2348837 L7.25704225,37.6627907 Z M5.33450704,37.6627907 L6.01056338,37.6627907 L6.01056338,39.9405685 C6.01056338,40.5868217 5.50352113,40.9788114 4.84859155,40.9788114 C4.19366197,40.9788114 3.68661972,40.5868217 3.68661972,39.9405685 L3.68661972,37.6627907 L4.38380282,37.6627907 L4.38380282,39.8770026 C4.38380282,40.1630491 4.57394366,40.3537468 4.84859155,40.3537468 C5.12323944,40.3537468 5.32394366,40.1736434 5.32394366,39.8875969 L5.32394366,37.6627907 L5.33450704,37.6627907 Z M1.01408451,37.6521964 L0,40.9152455 L0.654929577,40.9152455 L0.855633803,40.2054264 L1.64788732,40.2054264 L1.84859155,40.9152455 L2.53521127,40.9152455 L1.53169014,37.6521964 L1.01408451,37.6521964 Z M0.992957746,39.6651163 L1.16197183,39.0294574 C1.19366197,38.9341085 1.22535211,38.8281654 1.23591549,38.7116279 L1.24647887,38.7116279 C1.26760563,38.8281654 1.28873239,38.9447028 1.32042254,39.0294574 L1.5,39.6651163 L0.992957746,39.6651163 Z M25.2147887,37.6627907 L24.2852113,37.6627907 L24.2852113,40.9152455 L25.2147887,40.9152455 C25.9859155,40.9152455 26.6302817,40.3537468 26.6302817,39.2943152 C26.6197183,38.2348837 25.9753521,37.6627907 25.2147887,37.6627907 Z M25.1408451,40.3113695 L24.9612676,40.3113695 L24.9612676,38.277261 L25.1408451,38.277261 C25.5528169,38.277261 25.9225352,38.5950904 25.9225352,39.2943152 C25.9225352,39.9935401 25.5528169,40.3113695 25.1408451,40.3113695 Z M29.9471831,37.6627907 L29.9471831,38.2348837 L29.1866197,38.2348837 L29.1866197,40.9152455 L28.4894366,40.9152455 L28.4894366,38.2348837 L27.7183099,38.2348837 L27.7183099,37.6627907 L29.9471831,37.6627907 Z M21.5176056,37.6521964 L20.5035211,40.9152455 L21.1584507,40.9152455 L21.3591549,40.2054264 L22.1514085,40.2054264 L22.3521127,40.9152455 L23.0387324,40.9152455 L22.0352113,37.6521964 L21.5176056,37.6521964 Z M21.4964789,39.6651163 L21.665493,39.0294574 C21.6971831,38.9341085 21.7288732,38.8281654 21.7394366,38.7116279 L21.75,38.7116279 C21.7711268,38.8281654 21.7922535,38.9447028 21.8239437,39.0294574 L22.0035211,39.6651163 L21.4964789,39.6651163 Z M16.4366197,40.0041344 C16.4366197,40.597416 16.0880282,40.9788114 15.4330986,40.9788114 C15.1161972,40.9788114 14.8415493,40.8834625 14.6725352,40.7457364 L14.6197183,40.0465116 C14.8415493,40.2478036 15.0950704,40.3643411 15.3802817,40.3643411 C15.6126761,40.3643411 15.7394366,40.2478036 15.7394366,40.0677003 C15.7394366,39.8664083 15.6021127,39.6968992 15.3380282,39.5273902 C14.8943662,39.2413437 14.6830986,38.9235142 14.6830986,38.5103359 C14.6830986,37.9912145 15.0316901,37.5992248 15.6126761,37.5992248 C15.9295775,37.5992248 16.1302817,37.6945736 16.2359155,37.7687339 L16.193662,38.3832041 C16.0774648,38.2984496 15.8873239,38.2136951 15.6866197,38.2136951 C15.4753521,38.2136951 15.3697183,38.3196382 15.3697183,38.4679587 C15.3697183,38.6268734 15.4647887,38.7434109 15.75,38.9447028 C16.1619718,39.2095607 16.4366197,39.5591731 16.4366197,40.0041344 Z M17.5246479,37.6627907 L19.7535211,37.6627907 L19.7535211,38.2348837 L18.9929577,38.2348837 L18.9929577,40.9152455 L18.2957746,40.9152455 L18.2957746,38.2348837 L17.5246479,38.2348837 L17.5246479,37.6627907 Z M11.9894366,37.6098191 C11.2183099,37.6098191 10.584507,38.277261 10.584507,39.2943152 C10.584507,40.3219638 11.2183099,40.9894057 11.9894366,40.9894057 C12.7605634,40.9894057 13.3943662,40.3219638 13.3943662,39.2943152 C13.3943662,38.2666667 12.75,37.6098191 11.9894366,37.6098191 Z M11.9894366,40.3431525 C11.6197183,40.3431525 11.3028169,39.9193798 11.3028169,39.2837209 C11.3028169,38.6586563 11.6302817,38.2348837 11.9894366,38.2348837 C12.3485915,38.2348837 12.6760563,38.6586563 12.6760563,39.2837209 C12.6760563,39.9193798 12.3485915,40.3431525 11.9894366,40.3431525 Z M18.3591549,0 L14.9788732,0 L11.5774648,0 L3.75,33.8382429 L10.5105634,33.8382429 L11.7147887,28.1385013 L14.9894366,28.1385013 L18.2640845,28.1385013 L19.4683099,33.8382429 L26.1971831,33.8382429 L18.3591549,0 Z M12.7922535,22.8413437 L14.2288732,13.8255814 L14.9471831,8.70852713 L15,8.70852713 L15.0528169,8.70852713 L15.7711268,13.8255814 L17.2077465,22.8413437 L12.7922535,22.8413437 Z" id="Shape"></path>
        </g>
    </g>
</svg>